<?xml version="1.0" standalone="no"?>
<!DOCTYPE svg PUBLIC "-//W3C//DTD SVG 20010904//EN"
 "http://www.w3.org/TR/2001/REC-SVG-20010904/DTD/svg10.dtd">
<svg version="1.0" xmlns="http://www.w3.org/2000/svg"
 width="1980.000000pt" height="1980.000000pt" viewBox="0 0 1980.000000 1980.000000"
 preserveAspectRatio="xMidYMid meet">

<g transform="translate(0.000000,1980.000000) scale(0.100000,-0.100000)"
fill="#000000" stroke="none">
<path d="M5040 18580 c-911 -7 -1715 -22 -1726 -33 -8 -8 -27 -454 -31 -727
-11 -742 -13 -4236 -4 -5630 15 -2056 38 -3111 77 -3424 19 -158 98 -621 129
-762 88 -392 252 -924 378 -1224 401 -960 770 -1603 1337 -2335 194 -250 272
-345 400 -485 53 -58 129 -145 170 -195 173 -208 706 -719 1060 -1018 63 -53
158 -133 210 -177 111 -95 505 -394 700 -532 379 -267 943 -619 1193 -744 50
-26 137 -72 192 -104 55 -31 270 -143 478 -248 l378 -192 72 36 c40 20 83 44
97 54 14 10 133 73 265 141 132 67 296 155 365 195 69 39 222 125 340 189 463
253 753 442 1343 877 637 470 917 707 1393 1183 523 522 933 1019 1308 1585
390 587 737 1260 964 1865 174 465 344 1097 406 1510 14 94 37 242 51 330 31
198 41 352 59 960 26 863 29 1691 16 5310 -7 1964 -13 3570 -14 3571 0 0
-1214 6 -2696 13 -3644 16 -7591 21 -8910 11z m7020 -735 c2114 -9 3846 -17
3848 -19 5 -5 31 -4894 31 -5856 0 -787 -14 -2200 -24 -2385 -3 -49 -9 -193
-15 -320 -6 -126 -15 -268 -20 -315 -6 -47 -17 -145 -25 -219 -23 -198 -160
-804 -245 -1079 -176 -569 -307 -900 -526 -1332 -688 -1360 -1719 -2526 -3114
-3522 -242 -172 -679 -465 -786 -525 -49 -28 -188 -107 -309 -176 -121 -68
-330 -183 -465 -255 -135 -71 -285 -151 -333 -177 l-88 -47 -57 29 c-31 16
-158 81 -282 145 -124 63 -301 157 -395 208 -93 51 -224 122 -290 158 -306
166 -1009 634 -1286 856 -327 263 -490 398 -573 476 -50 47 -138 126 -196 175
-58 50 -157 144 -220 210 -63 65 -183 189 -265 275 -83 85 -173 182 -200 215
-28 33 -95 111 -150 173 -161 183 -489 611 -657 857 -488 718 -878 1543 -1127
2383 -37 126 -52 196 -61 287 -6 66 -20 179 -30 250 -10 72 -21 166 -25 210
-10 121 -54 494 -64 545 -5 25 -10 158 -10 295 -1 138 -9 498 -18 800 -9 303
-19 717 -23 920 -20 1019 -30 1475 -39 1835 -12 478 -16 4222 -4 4580 5 140
12 261 16 267 14 22 65 32 354 65 245 28 2805 32 7673 13z"/>
<path d="M9826 16297 c-35 -46 -64 -115 -83 -195 -17 -75 -31 -781 -32 -1632
-1 -434 1 -468 18 -506 27 -59 77 -94 138 -97 108 -5 139 58 153 317 20 354 3
1492 -26 1756 -22 204 -39 309 -57 353 -14 33 -20 37 -51 37 -28 0 -40 -7 -60
-33z"/>
<path d="M9311 15933 c-19 -81 -33 -361 -26 -503 3 -74 8 -276 10 -447 2 -172
8 -352 14 -400 6 -49 15 -162 21 -253 14 -235 39 -561 44 -569 2 -3 12 -60 20
-126 22 -157 46 -287 56 -300 4 -5 15 -37 25 -70 21 -76 46 -116 96 -156 l40
-31 44 17 c90 34 135 118 134 250 0 153 -20 211 -137 410 -27 46 -52 109 -73
185 -31 113 -32 120 -40 425 -12 473 -21 669 -29 680 -4 6 -10 78 -14 160 -13
287 -96 725 -144 763 -25 19 -30 15 -41 -35z"/>
<path d="M10422 15968 c-18 -24 -50 -93 -60 -133 -6 -22 -13 -121 -16 -220 -4
-99 -10 -220 -16 -270 -5 -49 -14 -173 -20 -275 -6 -102 -15 -194 -20 -205 -4
-11 -13 -90 -20 -175 -17 -226 -37 -408 -59 -550 -11 -69 -30 -187 -41 -263
-26 -170 -38 -206 -90 -264 -45 -52 -57 -84 -70 -201 -12 -99 4 -197 48 -282
24 -49 31 -55 62 -58 51 -5 104 16 145 58 46 47 100 185 121 305 8 49 21 124
29 165 22 114 51 487 60 780 3 91 10 192 15 225 12 68 24 651 22 1000 -2 274
-17 375 -56 375 -13 0 -28 -6 -34 -12z"/>
<path d="M10797 15423 c-4 -58 -7 -130 -7 -159 0 -29 -5 -56 -10 -59 -7 -4
-10 -60 -9 -152 0 -79 -2 -147 -5 -150 -3 -4 -6 -112 -6 -242 0 -130 -4 -290
-10 -356 -5 -66 -15 -217 -21 -335 -6 -118 -14 -219 -19 -225 -4 -5 -10 -57
-14 -115 -15 -241 -69 -507 -122 -597 -32 -55 -61 -74 -169 -112 -94 -34 -225
-113 -302 -184 -99 -91 -149 -209 -141 -334 5 -83 25 -128 91 -199 58 -64 109
-93 178 -101 43 -5 59 -1 122 30 77 38 184 126 229 187 41 55 82 139 97 195 8
28 24 84 37 125 13 41 30 107 38 145 13 62 71 358 80 410 1 11 6 27 9 35 3 8
11 65 17 125 6 61 17 171 25 245 8 74 22 203 31 285 9 83 19 242 21 355 4 164
8 210 20 229 14 22 15 59 10 290 -4 147 -15 358 -27 470 -18 187 -22 206 -45
237 -21 28 -71 64 -88 64 -2 0 -7 -48 -10 -107z"/>
<path d="M8932 15418 c-34 -56 -61 -155 -73 -267 -22 -216 10 -1382 41 -1456
7 -18 34 -245 47 -405 2 -30 7 -62 10 -70 9 -22 11 -33 28 -160 9 -63 23 -136
32 -162 8 -26 12 -56 8 -67 -3 -11 -2 -22 3 -25 6 -3 13 -23 17 -43 13 -74 97
-309 138 -387 89 -166 246 -266 420 -266 54 0 125 46 189 124 l50 61 -5 110
c-3 61 -12 133 -21 162 -20 63 -88 141 -193 220 -41 31 -81 66 -90 79 -8 13
-25 30 -38 37 -71 40 -166 110 -193 143 -18 21 -43 68 -57 104 -29 78 -85 298
-85 338 0 15 -4 32 -9 38 -5 5 -16 63 -25 129 -10 66 -23 145 -31 175 -7 30
-16 91 -20 135 -3 44 -13 121 -20 170 -7 50 -16 131 -19 180 -6 80 -7 609 -4
895 2 107 -10 172 -38 216 -22 32 -39 30 -62 -8z"/>
<path d="M14892 14135 c-17 -8 -48 -26 -67 -40 -49 -38 -197 -210 -300 -350
-49 -66 -204 -268 -345 -450 -141 -181 -285 -368 -320 -415 -65 -87 -129 -164
-188 -229 -103 -112 -116 -224 -37 -301 31 -30 41 -34 77 -31 24 1 56 10 73
18 37 18 115 93 115 109 0 7 6 14 14 17 8 3 20 17 28 30 143 264 486 775 671
999 21 26 48 67 60 90 12 24 39 63 59 88 37 44 70 96 150 232 22 38 45 71 52
75 15 10 36 59 36 85 0 31 -22 88 -35 88 -5 -1 -25 -7 -43 -15z"/>
<path d="M4882 14094 c-7 -14 -12 -32 -12 -40 0 -25 40 -138 53 -149 7 -6 21
-26 31 -44 11 -19 67 -98 125 -176 387 -515 568 -775 691 -990 82 -145 139
-233 183 -285 91 -106 98 -113 142 -117 36 -5 47 -1 77 25 34 31 58 85 58 135
0 68 -67 173 -195 307 -132 138 -218 237 -422 491 -101 125 -218 267 -261 315
-43 49 -120 143 -171 209 -121 154 -254 317 -273 333 -12 10 -17 7 -26 -14z"/>
<path d="M14289 14073 c-57 -59 -207 -242 -281 -343 -30 -41 -86 -118 -124
-170 -39 -52 -73 -103 -77 -112 -3 -10 -11 -18 -17 -18 -5 0 -10 -5 -10 -12 0
-6 -11 -25 -24 -42 -12 -17 -31 -47 -41 -66 -10 -19 -52 -82 -93 -140 -127
-176 -182 -258 -182 -269 0 -6 -5 -11 -10 -11 -6 0 -15 -10 -20 -22 -5 -13
-25 -45 -44 -72 -20 -27 -36 -54 -36 -59 0 -6 -6 -18 -14 -26 -8 -9 -45 -70
-82 -136 -37 -66 -84 -146 -106 -177 -54 -81 -116 -208 -128 -266 -14 -65 1
-157 36 -222 26 -48 29 -50 71 -50 24 0 59 6 77 14 37 16 96 64 96 79 0 5 9
22 21 38 14 20 32 85 54 195 29 145 41 180 95 297 116 249 155 316 419 719
196 300 211 323 211 336 0 7 4 12 9 12 5 0 16 12 23 28 42 80 97 174 138 232
43 60 130 240 130 267 0 13 -27 43 -39 43 -4 0 -27 -21 -52 -47z"/>
<path d="M5485 14087 c-13 -48 44 -196 114 -297 10 -14 20 -33 24 -42 3 -9 44
-75 91 -147 47 -71 103 -166 126 -210 23 -45 45 -81 48 -81 4 0 13 -12 20 -27
6 -16 50 -82 96 -148 47 -66 108 -165 136 -220 28 -55 64 -120 80 -145 151
-239 240 -436 240 -533 0 -52 20 -117 42 -139 10 -10 18 -23 18 -30 0 -28 54
-121 101 -172 62 -68 87 -72 134 -21 59 62 78 116 73 203 -2 42 -11 88 -18
102 -8 14 -15 27 -15 30 -1 9 -55 115 -90 175 -19 33 -46 80 -60 105 -14 25
-43 72 -65 105 -22 33 -43 67 -47 75 -4 8 -22 38 -41 65 -19 28 -38 60 -43 73
-5 12 -13 22 -19 22 -5 0 -10 6 -10 13 0 7 -15 31 -34 53 -18 22 -54 73 -78
114 -86 142 -113 186 -160 252 -27 37 -48 69 -48 72 0 10 -156 233 -231 331
-25 33 -73 101 -106 150 -104 157 -121 179 -165 221 -45 43 -87 74 -100 74 -4
0 -10 -10 -13 -23z"/>
<path d="M6019 13927 c-9 -7 -14 -19 -12 -27 13 -48 44 -104 95 -177 32 -44
58 -84 58 -88 0 -3 36 -51 80 -105 76 -94 180 -250 180 -271 0 -5 5 -9 10 -9
6 0 10 -5 10 -10 0 -6 42 -72 94 -148 82 -120 144 -223 180 -299 6 -13 14 -23
19 -23 4 0 7 -5 7 -11 0 -5 24 -48 54 -93 160 -245 306 -547 306 -634 0 -31
-61 -225 -72 -230 -4 -2 -8 -7 -8 -12 0 -4 -18 -47 -40 -95 -27 -58 -44 -110
-50 -158 -13 -102 -14 -99 31 -166 38 -57 48 -65 142 -111 112 -55 126 -57
197 -34 59 19 86 44 114 103 35 77 27 348 -14 446 -4 11 -16 49 -25 85 -9 36
-26 84 -36 107 -10 23 -19 45 -19 50 0 37 -315 693 -361 751 -10 14 -19 29
-19 35 0 5 -16 34 -35 63 -19 29 -35 56 -35 60 0 9 -133 208 -142 212 -5 2 -8
9 -8 14 0 6 -27 46 -59 88 -33 42 -76 103 -95 136 -59 96 -60 98 -77 111 -8 6
-37 45 -64 85 -117 174 -316 369 -375 368 -8 -1 -22 -6 -31 -13z"/>
<path d="M13765 13927 c-46 -27 -125 -92 -125 -102 0 -7 -12 -23 -27 -37 -38
-35 -140 -161 -188 -232 -22 -32 -50 -66 -62 -76 -13 -10 -23 -21 -23 -24 0
-3 -27 -41 -60 -84 -33 -44 -60 -82 -60 -87 0 -4 -29 -47 -65 -95 -36 -48 -65
-92 -65 -98 0 -6 -6 -15 -12 -19 -14 -8 -20 -18 -80 -128 -22 -38 -49 -81 -62
-95 -30 -34 -66 -91 -111 -175 -20 -38 -44 -77 -53 -85 -10 -8 -37 -53 -61
-100 -24 -47 -68 -125 -96 -175 -86 -147 -103 -178 -127 -225 -13 -25 -25 -47
-28 -50 -7 -6 -65 -171 -94 -265 -12 -38 -24 -75 -28 -80 -3 -6 -9 -46 -13
-91 -8 -90 7 -170 49 -251 33 -66 52 -80 148 -114 101 -36 191 -43 231 -16 33
21 93 113 125 192 34 82 28 155 -31 350 -6 22 -30 68 -54 102 -99 145 -92 236
34 455 26 46 62 105 80 133 18 27 33 55 33 62 0 7 5 13 10 13 6 0 15 12 20 26
6 14 24 45 40 69 17 24 30 46 30 50 0 3 27 46 60 96 33 49 60 92 60 95 0 3 17
31 38 62 22 31 41 62 43 67 2 6 25 42 51 80 110 162 178 267 178 276 0 5 7 12
15 15 8 4 15 11 15 16 0 6 20 39 45 74 25 34 45 65 45 69 0 3 14 25 30 48 17
23 57 83 89 132 33 50 85 115 115 145 31 30 56 60 56 66 0 24 -81 32 -115 11z"/>
<path d="M4663 13622 c6 -51 64 -192 78 -192 5 0 9 -5 9 -10 0 -11 106 -171
119 -180 4 -3 10 -12 13 -20 3 -8 44 -61 92 -117 47 -56 86 -108 86 -115 0 -7
38 -58 85 -113 46 -55 82 -101 80 -104 -3 -2 1 -9 8 -15 42 -35 243 -286 230
-286 -4 0 0 -6 9 -12 35 -30 288 -333 391 -470 47 -64 189 -208 249 -255 32
-24 79 -51 106 -60 26 -9 52 -20 59 -25 26 -21 223 20 223 46 0 7 -7 34 -16
60 -19 55 -141 183 -238 251 -131 91 -218 164 -335 284 -256 261 -457 488
-601 680 -30 41 -65 84 -77 98 -13 13 -23 27 -23 31 0 5 -19 26 -41 47 -40 38
-170 193 -217 259 -12 17 -70 84 -129 149 -90 98 -113 117 -137 117 -29 0 -29
0 -23 -48z"/>
<path d="M15112 13595 c-17 -14 -34 -25 -39 -25 -13 0 -210 -203 -248 -255
-17 -22 -38 -46 -48 -53 -10 -8 -22 -19 -27 -25 -6 -7 -49 -57 -96 -112 -48
-55 -97 -116 -110 -135 -51 -76 -158 -208 -214 -262 -33 -32 -107 -113 -166
-181 -59 -67 -153 -169 -210 -227 -57 -58 -111 -115 -121 -128 -17 -21 -81
-68 -198 -146 -27 -18 -56 -40 -64 -49 -7 -10 -19 -17 -26 -17 -26 0 -134
-161 -149 -223 -7 -28 16 -87 34 -87 5 0 16 -7 24 -16 13 -12 25 -13 70 -5
140 26 291 152 528 441 20 25 69 79 108 120 39 41 78 87 86 103 8 15 19 27 25
27 5 0 12 8 16 18 3 9 25 40 48 67 22 28 51 65 64 82 12 18 42 56 67 85 24 28
44 56 44 61 0 5 30 41 66 80 36 40 76 93 89 118 13 25 31 51 39 59 26 21 156
187 156 198 0 6 3 12 8 14 7 3 80 112 122 183 13 22 36 56 51 75 32 41 119
207 119 227 0 20 -15 16 -48 -12z"/>
<path d="M4646 13085 c-17 -31 -18 -41 -7 -88 13 -57 89 -217 109 -230 6 -4
12 -13 12 -18 0 -31 297 -415 615 -794 181 -215 266 -309 359 -392 32 -29 87
-88 121 -130 76 -95 257 -278 345 -348 36 -29 74 -63 85 -75 35 -40 122 -99
177 -121 61 -24 235 -38 271 -22 12 6 48 18 80 28 31 10 57 22 57 26 0 4 12
14 26 21 30 15 81 104 77 133 -10 60 -29 114 -49 141 -106 143 -284 219 -549
234 -169 10 -220 25 -322 92 -125 84 -544 507 -718 727 -49 63 -98 122 -107
132 -10 11 -18 22 -18 27 0 4 -36 48 -80 97 -69 79 -200 272 -200 296 0 5 -5
9 -10 9 -6 0 -14 8 -18 18 -4 11 -50 76 -102 145 -105 141 -123 151 -154 92z"/>
<path d="M15099 13021 c-77 -58 -255 -274 -382 -463 -29 -42 -62 -82 -74 -89
-13 -7 -23 -19 -23 -28 0 -9 -32 -54 -72 -101 -39 -47 -89 -110 -111 -140 -22
-30 -72 -89 -112 -130 -39 -41 -104 -113 -144 -160 -178 -209 -231 -267 -311
-336 -46 -40 -111 -88 -145 -106 l-60 -32 -245 -7 c-210 -6 -254 -10 -310 -28
-36 -12 -77 -30 -92 -41 -15 -11 -31 -20 -36 -20 -5 0 -27 -25 -50 -56 -106
-143 -90 -305 39 -397 45 -33 146 -53 221 -44 106 13 260 100 410 231 102 90
546 531 610 606 25 30 85 98 133 150 78 85 234 274 253 305 4 6 19 20 35 30
15 9 27 25 27 34 0 9 34 54 76 101 42 47 93 109 113 139 20 29 61 91 91 136
30 46 75 109 100 142 44 57 160 280 160 306 0 8 -8 21 -18 31 -18 15 -22 13
-83 -33z"/>
<path d="M9042 12036 c-18 -30 -19 -42 -11 -122 12 -128 41 -284 51 -284 5 0
6 -5 3 -10 -4 -6 -3 -16 2 -23 6 -7 18 -42 27 -79 10 -38 21 -68 25 -68 4 0 8
-6 8 -12 0 -35 79 -173 128 -227 70 -74 114 -93 220 -93 139 -1 259 58 305
148 22 43 25 62 25 150 0 93 -2 102 -26 131 -14 17 -32 51 -39 77 -7 25 -19
51 -26 57 -8 6 -14 16 -14 21 0 11 -85 98 -95 98 -4 0 -25 16 -47 35 -42 36
-173 108 -288 158 -76 33 -198 77 -216 77 -7 0 -21 -15 -32 -34z"/>
<path d="M10487 12007 c-81 -36 -131 -65 -160 -93 -23 -22 -73 -66 -112 -96
-95 -76 -255 -241 -255 -264 0 -11 -7 -31 -15 -47 -8 -15 -17 -54 -21 -86 -6
-55 -4 -62 24 -104 36 -52 128 -146 162 -166 36 -21 155 -51 158 -40 2 5 13 9
25 9 71 0 161 56 240 149 44 51 159 268 173 327 4 16 11 31 15 34 10 7 49 226
49 271 0 16 5 29 11 29 12 0 6 106 -6 119 -4 3 -43 7 -88 8 -79 2 -87 0 -200
-50z"/>
<path d="M11977 11300 c-47 -89 -89 -171 -93 -183 -3 -12 -17 -44 -29 -72 -13
-27 -29 -85 -36 -127 -7 -43 -17 -78 -21 -78 -12 0 -10 -141 3 -202 35 -164
132 -231 278 -193 132 34 232 109 281 210 47 97 25 246 -61 418 -18 34 -66
116 -109 182 -43 66 -87 139 -99 163 -12 23 -23 42 -25 42 -2 0 -42 -72 -89
-160z"/>
<path d="M7753 11433 c-6 -17 -56 -85 -115 -157 -16 -19 -28 -37 -28 -41 0 -3
-13 -25 -29 -49 -25 -36 -65 -148 -85 -239 -4 -15 -11 -86 -16 -158 -10 -122
-9 -133 10 -177 34 -76 98 -152 129 -152 14 0 51 -7 81 -15 30 -8 80 -15 110
-15 153 0 240 168 212 410 -7 55 -16 108 -21 117 -5 10 -20 56 -32 103 -21 78
-60 161 -108 228 -10 15 -32 55 -50 89 -34 69 -48 83 -58 56z"/>
<path d="M10635 11050 c-22 -10 -60 -26 -85 -36 -25 -10 -49 -22 -55 -28 -5
-6 -26 -19 -45 -29 -145 -74 -219 -134 -401 -318 -85 -88 -160 -159 -165 -158
-5 0 -49 52 -99 116 -49 63 -119 142 -155 175 -70 65 -190 154 -230 170 -89
37 -252 91 -287 95 -36 4 -46 1 -67 -22 -22 -23 -24 -33 -20 -78 10 -101 36
-261 47 -286 5 -14 11 -29 11 -33 1 -3 4 -10 9 -14 4 -4 7 -15 7 -24 0 -26 86
-195 144 -285 100 -153 160 -194 291 -203 111 -6 160 11 265 95 47 38 85 62
87 56 20 -58 117 -142 198 -170 73 -26 196 -23 255 6 69 33 81 42 144 104 64
64 127 155 153 221 9 22 22 50 29 61 6 11 19 45 28 75 10 30 21 62 26 72 24
43 70 291 70 373 0 57 -25 85 -74 84 -22 0 -59 -9 -81 -19z"/>
<path d="M12826 10709 c-49 -5 -94 -13 -100 -17 -6 -5 -33 -15 -61 -22 -64
-17 -200 -92 -243 -133 -18 -18 -48 -62 -67 -100 -33 -66 -34 -68 -20 -115 8
-26 15 -50 15 -54 0 -5 16 -26 36 -47 52 -59 104 -75 217 -68 196 11 406 121
618 325 84 80 97 97 90 115 -13 34 -50 56 -151 86 -111 33 -210 42 -334 30z"/>
<path d="M6690 10690 c-36 -11 -103 -25 -150 -31 -47 -6 -91 -13 -98 -15 -21
-6 0 -34 75 -96 402 -334 436 -356 621 -402 69 -17 162 -21 162 -7 0 5 13 11
30 14 58 12 127 97 157 192 11 33 -9 83 -66 166 -97 144 -205 185 -506 194
-139 4 -169 2 -225 -15z"/>
<path d="M8280 10681 c0 -5 -20 -34 -45 -64 -25 -31 -45 -60 -45 -66 0 -6 -4
-11 -9 -11 -14 0 -113 -191 -146 -282 -26 -71 -36 -185 -24 -277 12 -98 37
-149 98 -204 86 -78 160 -94 261 -57 69 25 125 79 161 155 26 54 29 70 29 161
0 55 -3 104 -7 108 -4 4 -9 19 -11 33 -6 47 -63 216 -98 288 -63 133 -164 266
-164 216z"/>
<path d="M11470 10603 c-92 -104 -170 -275 -191 -413 -7 -48 -9 -127 -6 -187
6 -118 27 -173 99 -253 l40 -45 89 -3 c66 -3 95 0 119 12 16 9 43 23 60 32 51
26 99 93 122 169 31 99 30 242 -1 345 -51 168 -76 215 -160 303 -38 40 -105
87 -125 87 -2 0 -23 -21 -46 -47z"/>
<path d="M7265 9931 c-16 -5 -51 -9 -77 -10 -44 -1 -118 -33 -118 -50 0 -57
368 -407 518 -493 80 -46 94 -50 152 -44 107 13 231 96 271 182 30 67 25 120
-21 212 -60 120 -103 148 -290 187 -77 17 -392 28 -435 16z"/>
<path d="M12202 9925 c-57 -7 -109 -18 -115 -23 -7 -5 -28 -12 -47 -16 -56
-10 -154 -61 -183 -95 -48 -57 -57 -124 -31 -224 19 -76 47 -109 140 -169 l73
-47 60 10 c77 12 137 39 236 107 169 115 405 341 405 388 0 57 -52 72 -280 79
-102 3 -190 -1 -258 -10z"/>
<path d="M9897 9905 c-8 -17 -24 -64 -36 -105 -22 -81 -76 -443 -86 -580 -10
-141 -25 -297 -45 -455 -11 -82 -22 -190 -25 -240 -4 -49 -11 -108 -16 -130
-9 -41 -49 -419 -49 -467 l0 -28 278 0 279 0 -8 48 c-4 26 -17 169 -29 317
-11 149 -25 293 -30 320 -5 28 -14 104 -19 170 -33 373 -43 477 -56 545 -7 41
-16 109 -20 150 -11 131 -35 304 -45 325 -5 11 -14 38 -19 60 -6 22 -21 53
-35 70 l-23 29 -16 -29z"/>
<path d="M8244 9483 c-8 -30 15 -108 58 -203 56 -120 76 -165 101 -221 24 -54
76 -166 138 -294 16 -33 29 -64 29 -68 0 -5 11 -32 24 -60 34 -74 121 -303
140 -368 8 -30 22 -112 31 -184 22 -173 21 -172 57 -179 54 -11 373 -7 407 5
31 11 32 13 26 53 -14 97 -33 152 -115 346 -134 314 -235 496 -421 752 -215
297 -304 385 -444 438 -22 8 -26 6 -31 -17z"/>
<path d="M11499 9475 c-53 -33 -256 -212 -258 -228 -1 -5 -23 -34 -50 -65 -27
-31 -70 -88 -96 -127 -83 -123 -305 -474 -314 -498 -5 -12 -22 -45 -39 -74
-17 -28 -28 -53 -26 -56 3 -3 1 -13 -5 -24 -15 -25 -111 -269 -111 -280 0 -6
-6 -23 -14 -39 -15 -30 -28 -148 -19 -171 4 -10 51 -13 212 -13 113 0 216 3
228 6 24 7 39 58 50 172 3 34 10 65 14 68 4 2 5 12 2 20 -3 9 -2 19 4 23 5 3
19 42 32 86 35 127 109 330 168 465 30 69 65 148 77 175 11 28 23 52 26 55 7
7 30 74 30 88 0 6 25 62 54 124 69 143 126 287 119 304 -9 24 -30 22 -84 -11z"/>
<path d="M9180 7612 c0 -5 -89 -12 -198 -15 -117 -3 -208 -10 -224 -17 -37
-17 -66 -76 -78 -157 -12 -85 -1 -131 38 -160 24 -18 53 -23 173 -32 317 -24
956 -33 1472 -22 674 15 686 16 733 54 l37 31 -7 73 c-7 83 -23 123 -63 151
-77 55 -196 65 -973 87 -601 17 -910 19 -910 7z"/>
<path d="M8908 7003 c-27 -3 -45 -14 -70 -42 -50 -58 -128 -166 -150 -208 -11
-21 -31 -51 -43 -68 -13 -16 -26 -40 -30 -53 -4 -13 -42 -76 -84 -140 -71
-107 -151 -236 -192 -312 -9 -17 -40 -66 -68 -109 -28 -43 -51 -82 -51 -86 0
-4 -16 -30 -35 -59 -19 -29 -35 -57 -35 -62 0 -5 -18 -36 -40 -69 -22 -33 -40
-65 -40 -72 0 -7 -4 -13 -8 -13 -4 0 -18 -19 -31 -42 -12 -24 -38 -70 -56
-103 -68 -119 -96 -177 -91 -190 5 -13 145 -85 165 -85 6 0 34 -11 63 -24 29
-13 80 -32 113 -41 33 -10 65 -21 70 -25 23 -18 154 -40 179 -30 36 13 81 80
116 174 17 44 51 124 75 176 40 89 57 128 59 140 1 3 7 14 13 25 5 11 16 38
23 60 7 22 17 46 23 53 5 6 6 12 2 12 -4 0 -3 6 3 13 6 7 18 35 27 62 9 28 18
56 20 63 3 7 3 14 2 16 -1 1 3 9 9 17 7 8 21 43 33 79 11 36 39 117 61 180 23
63 51 142 62 175 12 33 24 65 28 70 4 6 13 33 18 61 6 29 22 80 35 115 13 35
37 108 52 163 31 110 28 142 -15 162 -28 13 -156 23 -212 17z"/>
<path d="M9696 6997 c-8 -7 -20 -34 -26 -60 -34 -157 -124 -714 -155 -962 -19
-159 -42 -325 -50 -368 -8 -43 -22 -149 -30 -235 -9 -86 -22 -183 -30 -215 -8
-32 -15 -80 -15 -107 0 -83 -18 -80 465 -79 231 1 434 4 450 8 l30 6 -2 100
c-1 104 -69 617 -103 782 -11 52 -31 192 -44 311 -14 120 -34 258 -45 307 -10
50 -22 115 -26 145 -10 74 -73 352 -83 361 -14 13 -319 18 -336 6z"/>
<path d="M10557 6983 c-15 -15 -5 -96 24 -194 44 -147 133 -383 414 -1094 37
-93 83 -215 102 -270 19 -55 38 -104 42 -110 4 -5 16 -32 26 -60 23 -64 61
-115 85 -115 11 0 54 14 97 31 43 17 157 58 253 91 193 66 270 97 270 108 0
34 -94 206 -215 395 -29 44 -98 161 -155 260 -116 203 -260 430 -329 520 -25
33 -96 117 -157 187 -62 70 -129 154 -150 187 -36 56 -40 59 -88 65 -68 8
-211 8 -219 -1z"/>
</g>
</svg>
